<svg width="120" height="120" viewBox="0 0 120 120" fill="none" xmlns="http://www.w3.org/2000/svg">
<path fill-rule="evenodd" clip-rule="evenodd" d="M41.1438 1.51123C34.3746 1.51123 27.8829 4.13466 23.0964 8.80438L0 31.3373V41.6515C0 48.9384 3.20832 55.4942 8.32203 60.0478C3.20832 64.6013 0 71.1571 0 78.4441V88.7582L23.0964 111.291C27.8829 115.961 34.3746 118.584 41.1438 118.584C48.6129 118.584 55.3326 115.454 60 110.465C64.6674 115.454 71.3871 118.584 78.8562 118.584C85.6254 118.584 92.1171 115.961 96.9036 111.291L120 88.7582V78.4441C120 71.1571 116.792 64.6013 111.678 60.0478C116.792 55.4942 120 48.9384 120 41.6515V31.3373L96.9036 8.80438C92.1171 4.13466 85.6254 1.51123 78.8562 1.51123C71.3871 1.51123 64.6674 4.64129 60 9.63028C55.3326 4.64129 48.6129 1.51123 41.1438 1.51123ZM77.2764 60.0478C76.9887 59.7917 76.7064 59.5286 76.4298 59.2587L60 43.2296L43.5702 59.2587C43.2936 59.5286 43.0113 59.7917 42.7236 60.0478C43.0113 60.3039 43.2936 60.567 43.5702 60.8369L60 76.8659L76.4298 60.8369C76.7064 60.567 76.9887 60.3039 77.2764 60.0478ZM66.6666 88.7582V93.6841C66.6666 100.252 72.1242 105.576 78.8562 105.576C82.089 105.576 85.1895 104.323 87.4755 102.093L106.667 83.3699V78.4441C106.667 71.8763 101.209 66.5518 94.4772 66.5518C91.2444 66.5518 88.1439 67.8048 85.8579 70.035L66.6666 88.7582ZM53.3334 88.7582L34.1421 70.035C31.8561 67.8048 28.7557 66.5518 25.5229 66.5518C18.7908 66.5518 13.3333 71.8763 13.3333 78.4441V83.3699L32.5245 102.093C34.8105 104.323 37.911 105.576 41.1438 105.576C47.8758 105.576 53.3334 100.252 53.3334 93.6841V88.7582ZM53.3334 26.4116V31.3373L34.1421 50.0606C31.8561 52.2908 28.7557 53.5438 25.5229 53.5438C18.7908 53.5438 13.3333 48.2193 13.3333 41.6515V36.7256L32.5245 18.0025C34.8105 15.7723 37.911 14.5194 41.1438 14.5194C47.8758 14.5194 53.3334 19.8437 53.3334 26.4116ZM85.8579 50.0606L66.6666 31.3373V26.4116C66.6666 19.8437 72.1242 14.5194 78.8562 14.5194C82.089 14.5194 85.1895 15.7723 87.4755 18.0025L106.667 36.7256V41.6515C106.667 48.2193 101.209 53.5438 94.4772 53.5438C91.2444 53.5438 88.1439 52.2908 85.8579 50.0606Z" fill="#FF630B"/>
</svg>
